<?xml version="1.0" encoding="UTF-8"?>
<svg version="1.1" xmlns="http://www.w3.org/2000/svg" width="512" height="512">
<path d="M0 0 C0.91809448 0.00182281 1.83618896 0.00364563 2.78210449 0.00552368 C24.96544898 0.07946816 45.89665665 2.70422133 67.375 8.3125 C68.20418945 8.52745117 69.03337891 8.74240234 69.88769531 8.96386719 C109.20171407 19.38839297 144.87693912 40.0230945 174.515625 67.69921875 C176.49320537 69.50659753 178.4616654 71.22641972 180.53125 72.91796875 C182.81887163 74.84422158 184.71731006 76.65831255 186.625 78.9375 C189.37267007 82.17324304 192.21912144 85.28060716 195.125 88.375 C225.82057223 122.09820833 245.38977517 166.81425512 253.375 211.3125 C253.53726074 212.14378418 253.69952148 212.97506836 253.86669922 213.83154297 C259.16265528 241.55743058 258.77549548 273.64501622 253.375 301.3125 C253.21402832 302.20952637 253.05305664 303.10655273 252.88720703 304.03076172 C244.28240056 351.5845097 221.82677573 395.25964677 188.953125 430.48828125 C187.1599231 432.45265242 185.45305774 434.40999596 183.7734375 436.46484375 C181.8456263 438.75372708 180.0306261 440.65360591 177.75 442.5625 C174.51425696 445.31017007 171.40689284 448.15662144 168.3125 451.0625 C135.59222811 480.77555897 92.77703177 500.10981608 49.6875 508.5625 C48.53254028 508.78945557 48.53254028 508.78945557 47.35424805 509.02099609 C31.8603746 511.85085431 16.46753785 512.69012398 0.75 512.625 C-0.16809448 512.62317719 -1.08618896 512.62135437 -2.03210449 512.61947632 C-24.21544898 512.54553184 -45.14665665 509.92077867 -66.625 504.3125 C-67.45418945 504.09754883 -68.28337891 503.88259766 -69.13769531 503.66113281 C-109.60817453 492.92995937 -146.54064969 471.28802712 -176.625 442.3125 C-177.28435547 441.68037598 -177.94371094 441.04825195 -178.62304688 440.39697266 C-188.11130305 431.25252521 -196.8512044 421.95515991 -204.625 411.3125 C-205.48306152 410.16144983 -206.34113451 409.01040823 -207.19921875 407.859375 C-213.23677396 399.66974019 -218.61957302 391.16711724 -223.625 382.3125 C-224.0271875 381.60528809 -224.429375 380.89807617 -224.84375 380.16943359 C-237.86025099 357.04989063 -246.593552 331.90080247 -251.9375 305.9375 C-252.15853394 304.87172729 -252.15853394 304.87172729 -252.3840332 303.78442383 C-255.37044017 288.14208949 -255.99980954 272.50573907 -255.9375 256.625 C-255.93567719 255.65760895 -255.93385437 254.6902179 -255.93197632 253.69351196 C-255.88654826 239.36059023 -255.37766072 225.41476083 -252.625 211.3125 C-252.38354248 209.96696045 -252.38354248 209.96696045 -252.13720703 208.59423828 C-243.32721851 159.90656876 -219.88393453 114.88244092 -185.625 79.3125 C-184.99287598 78.65314453 -184.36075195 77.99378906 -183.70947266 77.31445312 C-174.56502521 67.82619695 -165.26765991 59.0862956 -154.625 51.3125 C-153.47394983 50.45443848 -152.32290823 49.59636549 -151.171875 48.73828125 C-142.98069386 42.70013171 -134.46695895 37.34154479 -125.625 32.3125 C-124.99319824 31.94801758 -124.36139648 31.58353516 -123.71044922 31.20800781 C-86.06570192 9.6614058 -43.12138988 -0.17866897 0 0 Z M-9.296875 40.3984375 C-49.44584496 41.79881156 -91.20712022 55.35351305 -123.625 79.3125 C-124.67429687 80.07949219 -125.72359375 80.84648438 -126.8046875 81.63671875 C-133.56732094 86.66631519 -139.83665962 92.08887156 -145.96875 97.8671875 C-148.625 100.3125 -148.625 100.3125 -151.2734375 102.41796875 C-153.35563309 104.09548513 -155.02402953 105.72130696 -156.75 107.75 C-157.34554687 108.44996094 -157.94109375 109.14992188 -158.5546875 109.87109375 C-159.23789063 110.67675781 -159.92109375 111.48242188 -160.625 112.3125 C-161.45257813 113.25222656 -162.28015625 114.19195312 -163.1328125 115.16015625 C-174.4486629 128.09314157 -183.54844781 142.17437393 -191.625 157.3125 C-192.22957031 158.4159375 -192.83414063 159.519375 -193.45703125 160.65625 C-205.00767932 182.55815604 -212.16991437 207.69787523 -214.625 232.3125 C-214.73457031 233.28703125 -214.84414062 234.2615625 -214.95703125 235.265625 C-218.75821538 274.79793997 -211.8952718 315.9373441 -193.625 351.3125 C-193.27824219 351.99892578 -192.93148437 352.68535156 -192.57421875 353.39257812 C-183.37237832 371.58490929 -172.04315149 387.82793107 -158.0703125 402.65625 C-155.625 405.3125 -155.625 405.3125 -153.51953125 407.9609375 C-151.84201487 410.04313309 -150.21619304 411.71152953 -148.1875 413.4375 C-147.48753906 414.03304688 -146.78757812 414.62859375 -146.06640625 415.2421875 C-145.26074219 415.92539062 -144.45507812 416.60859375 -143.625 417.3125 C-142.21541016 418.55386719 -142.21541016 418.55386719 -140.77734375 419.8203125 C-100.34899442 455.19351844 -47.22084975 473.79379233 6.375 472.3125 C7.58671875 472.28414063 8.7984375 472.25578125 10.046875 472.2265625 C59.92283742 470.48691628 108.43800761 450.21488844 145.03515625 416.46484375 C147.33930584 414.34533386 149.69495434 412.29814658 152.0625 410.25 C156.22345898 406.53770095 159.82394355 402.60476368 163.375 398.3125 C164.34234192 397.18089896 165.30980046 396.04939761 166.27734375 394.91796875 C178.53063922 380.4092947 188.5132864 364.59688791 196.375 347.3125 C196.70983398 346.58095703 197.04466797 345.84941406 197.38964844 345.09570312 C220.54073972 293.92418305 222.65133185 234.11698099 203.375 181.3125 C190.34545908 147.77330533 169.60428066 115.22462163 141.375 92.3125 C140.32267136 91.42476988 139.27061339 90.53671885 138.21875 89.6484375 C96.49456712 54.86682871 44.51160381 39.13909012 -9.296875 40.3984375 Z " fill="#000000" transform="translate(255.625,-0.3125)"/>
<path d="M0 0 C0.69738281 0.04382813 1.39476562 0.08765625 2.11328125 0.1328125 C11.80398109 2.92679273 18.64743297 11.44876392 25.5 18.39453125 C26.72102026 19.62115543 27.94271101 20.84711251 29.16503906 22.07243347 C32.36097563 25.27975612 35.54779466 28.49598812 38.73272705 31.7142334 C41.99208516 35.00442754 45.26008523 38.28601377 48.52734375 41.56835938 C54.92249501 47.99556458 61.30803638 54.43222602 67.6875 60.875 C73.79937007 55.88354954 79.27541915 50.33659608 84.78271103 44.70212746 C87.62808974 41.79521074 90.48941652 38.90402734 93.34765625 36.00976562 C96.9654859 32.34406412 100.57856646 28.67399216 104.17626953 24.98852539 C107.10192977 21.99233235 110.04227047 19.0112519 112.99271011 16.03946495 C114.10724365 14.91141656 115.21636838 13.77799546 116.31969833 12.63898659 C127.77054795 0.82792962 127.77054795 0.82792962 135.6875 -0.125 C142.01983635 -0.14935484 147.56462619 0.91688212 152.31640625 5.41796875 C156.52835616 10.01559118 158.41846587 13.96943137 159 20.25 C157.76352946 34.59305827 144.93615558 43.77454328 135.30859375 53.3515625 C134.24506436 54.41322096 133.18175987 55.47510475 132.1186676 56.53720093 C129.35418417 59.29791224 126.58670884 62.05560431 123.81854248 64.81262207 C120.98068695 67.64014771 118.14574998 70.47059643 115.31054688 73.30078125 C109.77234141 78.8283433 104.23096356 84.35271064 98.6875 89.875 C100.2683796 93.7823929 102.9453661 96.36953061 105.91577148 99.25097656 C106.44769104 99.77515671 106.9796106 100.29933685 107.52764893 100.83940125 C108.68067308 101.97480169 109.83588943 103.10797928 110.99304008 104.23917389 C112.82711411 106.03374648 114.65350094 107.83581275 116.47779846 109.64031982 C121.66473492 114.76929926 126.86107046 119.88859064 132.07250977 124.99267578 C135.26270808 128.11822203 138.44042102 131.25601804 141.61073494 134.40172577 C142.8176848 135.59446683 144.02928241 136.78252457 145.2456646 137.96564484 C146.95214685 139.62611304 148.64229585 141.30175701 150.32983398 142.98144531 C151.08037804 143.70031166 151.08037804 143.70031166 151.84608459 144.43370056 C156.56462821 149.19274735 158.34645333 154.2318883 159.1875 160.75 C158.91846305 166.68051026 156.17459289 172.49130922 151.90234375 176.5859375 C147.51078312 179.81200964 143.86235561 181.04379795 138.5 181.1875 C137.14841797 181.24357422 137.14841797 181.24357422 135.76953125 181.30078125 C128.7032349 180.32457554 123.48559825 176.26805066 118.63867188 171.28027344 C118.09130371 170.73348938 117.54393555 170.18670532 116.97998047 169.62335205 C115.19574 167.8363529 113.42604544 166.03567108 111.65625 164.234375 C110.41302903 162.98368377 109.16891459 161.73388011 107.9239502 160.48492432 C104.666581 157.21236075 101.42140978 153.92796112 98.17871094 150.64086914 C94.86085958 147.2819311 91.53150381 143.93443837 88.203125 140.5859375 C81.68666625 134.02671734 75.18304843 127.45492359 68.6875 120.875 C64.77889684 122.45731239 62.18340639 125.1359311 59.2956543 128.10327148 C58.76986786 128.63519104 58.24408142 129.1671106 57.70236206 129.71514893 C56.56365512 130.86813706 55.42720228 132.0233548 54.29276085 133.18054008 C52.49390063 135.01425714 50.68797396 136.84073079 48.87983704 138.66529846 C43.74080815 143.85316109 38.61300617 149.05201254 33.49438477 154.26000977 C30.36013204 157.44797869 27.2160843 160.62601471 24.06589699 163.79823494 C22.87044308 165.00606666 21.67879243 166.21767546 20.49112511 167.4331646 C18.8257368 169.13720688 17.14818162 170.82836302 15.4675293 172.51733398 C14.74327003 173.26787804 14.74327003 173.26787804 14.00437927 174.03358459 C9.44120056 178.57125583 4.30035814 181.3016009 -2.25 181.3125 C-8.05059429 181.10974366 -12.57353591 179.41882161 -16.84765625 175.44921875 C-20.81659774 170.97114191 -22.60243204 166.56244032 -22.75 160.625 C-22.80994141 159.31789063 -22.80994141 159.31789063 -22.87109375 157.984375 C-21.08767989 148.05712021 -13.43340646 141.475737 -6.5 134.75 C-5.52972374 133.79124952 -4.56031728 132.83161795 -3.59179688 131.87109375 C0.36417129 127.96629159 4.34439416 124.11306815 8.57421875 120.50390625 C14.59931101 115.32567118 20.09482458 109.57236326 25.6875 103.9375 C26.85523374 102.76473991 28.02320074 101.59221202 29.19140625 100.41992188 C32.02613234 97.57428311 34.85768824 94.72552547 37.6875 91.875 C36.10518761 87.96639684 33.4265689 85.37090639 30.45922852 82.4831543 C29.92730896 81.95736786 29.3953894 81.43158142 28.84735107 80.88986206 C27.69436294 79.75115512 26.5391452 78.61470228 25.38195992 77.48026085 C23.54824286 75.68140063 21.72176921 73.87547396 19.89720154 72.06733704 C14.70933891 66.92830815 9.51048746 61.80050617 4.30249023 56.68188477 C1.11452131 53.54763204 -2.06351471 50.4035843 -5.23573494 47.25339699 C-6.44356666 46.05794308 -7.65517546 44.86629243 -8.8706646 43.67862511 C-10.57470688 42.0132368 -12.26586302 40.33568162 -13.95483398 38.6550293 C-14.70537804 37.93077003 -14.70537804 37.93077003 -15.47108459 37.19187927 C-20.20835142 32.42798299 -22.7398935 27.23917472 -22.75 20.4375 C-22.5615933 15.14761956 -21.71698393 11.02195117 -18.3125 6.875 C-12.73350417 2.10787297 -7.45863213 -0.62723415 0 0 Z " fill="#000000" transform="translate(189.3125,164.125)"/>
</svg>
